<svg width="4200" height="700" viewBox="0 0 4200 700" fill="none" xmlns="http://www.w3.org/2000/svg">
    <g clip-path="url(#clip0_34_228)">
        <rect width="4200" height="700" fill="#101014" />
        <g opacity="0.5" filter="url(#filter0_f_34_228)">
            <rect x="3351" y="-418" width="1040" height="1040" rx="520" fill="url(#paint0_linear_34_228)" />
        </g>
        <g opacity="0.3" filter="url(#filter1_f_34_228)">
            <rect x="-373" y="180" width="1040" height="1040" rx="520" fill="url(#paint1_linear_34_228)" />
        </g>
        <path
            d="M646.711 229.23C620.766 198.784 547.102 220.872 514.595 236.096C588.259 222.962 629.712 289.824 539.05 328.33C483.579 351.911 422.143 357.881 385.163 280.273L380.987 281.466C402.459 352.209 367.865 384.149 315.078 402.355L314.183 399.669C300.166 347.732 325.218 293.108 374.426 272.512C419.757 253.707 470.755 269.825 499.683 308.629C511.314 322.36 559.031 282.063 547.699 267.437C522.349 239.678 486.263 221.768 445.405 220.872C366.672 219.082 301.359 281.466 299.57 360.269C299.271 376.089 301.359 391.313 305.832 405.34V405.639C268.852 415.788 207.416 464.443 236.642 498.77C262.589 529.216 336.252 507.127 368.759 491.904C295.096 505.038 253.642 438.175 344.304 399.669C399.776 376.089 461.212 370.119 498.192 447.727L502.367 446.533C480.895 375.791 515.49 343.852 568.277 325.643L569.171 328.33C583.189 380.268 558.137 434.891 508.929 455.488C463.597 474.293 412.599 458.174 383.67 419.37C372.04 405.639 324.323 445.936 335.656 460.562C361.005 488.322 397.091 506.232 437.949 507.127C516.683 508.918 581.996 446.533 583.784 367.731C584.083 351.911 581.996 336.688 577.522 322.658V322.36C614.502 312.51 675.938 263.855 646.711 229.23Z"
            fill="white" />
        <path
            d="M791.728 294.653V259.47C791.728 224.938 811.112 216.794 843.689 216.794H898.092C939.139 216.794 944.84 231.616 944.84 254.583V258.329H909.331C909.331 246.602 902.653 245.136 891.088 245.136H851.833C833.59 245.136 828.866 249.534 828.866 269.731V284.391C828.866 304.589 833.59 308.987 851.833 308.987H890.436C899.884 308.987 909.331 307.521 909.331 296.119V292.698H864.375V268.265H945.491V301.82C945.491 335.7 927.9 337.328 887.179 337.328H843.689C811.112 337.328 791.728 329.184 791.728 294.653ZM1007.55 247.416V276.084H1067.33C1077.1 276.084 1080.68 272.175 1080.68 263.705V259.795C1080.68 249.371 1075.47 247.416 1064.07 247.416H1007.55ZM971.386 336.025V218.097H1080.52C1108.37 218.097 1115.87 231.942 1115.87 253.117V260.61C1115.87 276.41 1112.28 285.694 1095.67 289.603V289.929C1106.42 291.884 1115.38 296.607 1115.38 315.991V336.025H1079.22V321.854C1079.22 309.475 1075.63 305.403 1064.39 305.403H1007.55V336.025H971.386ZM1132.9 336.025L1196.75 218.097H1243.82L1308.65 336.025H1268.42L1257.18 315.176H1183.88L1173.29 336.025H1132.9ZM1220.2 245.462L1197.4 289.766H1243.66L1220.2 245.462ZM1325.65 336.025V218.097H1424.19C1458.56 218.097 1466.87 235.363 1466.87 258.492V268.591C1466.87 286.183 1459.21 306.38 1433.64 306.38H1361.81V336.025H1325.65ZM1361.81 247.416V277.061H1418.01C1426.48 277.061 1429.73 271.523 1429.73 264.519V259.958C1429.73 251.977 1425.82 247.416 1414.91 247.416H1361.81ZM1490.61 336.025V218.097H1526.77V260.121H1603V218.097H1639.16V336.025H1603V291.395H1526.77V336.025H1490.61ZM1669.62 336.025V218.097H1705.78V336.025H1669.62ZM1733.79 294.653V259.47C1733.79 224.938 1753.17 216.794 1785.75 216.794H1828.26C1879.73 216.794 1886.41 227.87 1886.08 261.261H1849.92V258.004C1849.92 249.534 1843.73 247.09 1832.98 247.09H1793.56C1774.51 247.09 1770.92 256.049 1770.92 270.709V283.414C1770.92 300.517 1774.51 307.032 1791.61 307.032H1830.21C1846.5 307.032 1851.39 305.403 1851.39 290.743H1887.55V301.82C1887.55 321.692 1880.38 337.328 1844.06 337.328H1785.75C1753.17 337.328 1733.79 329.184 1733.79 294.653ZM1901.88 336.025L1965.73 218.097H2012.8L2077.63 336.025H2037.4L2026.16 315.176H1952.86L1942.27 336.025H1901.88ZM1989.19 245.462L1966.38 289.766H2012.64L1989.19 245.462ZM2094.63 336.025V218.097H2130.79V305.729H2212.07V336.025H2094.63ZM2316.23 336.025V218.097H2414.78C2449.15 218.097 2457.45 235.363 2457.45 258.492V268.591C2457.45 286.183 2449.8 306.38 2424.23 306.38H2352.39V336.025H2316.23ZM2352.39 247.416V277.061H2408.59C2417.06 277.061 2420.32 271.523 2420.32 264.519V259.958C2420.32 251.977 2416.41 247.416 2405.49 247.416H2352.39ZM2481.2 336.025V218.097H2517.36V305.729H2598.64V336.025H2481.2ZM2606.6 336.025L2670.45 218.097H2717.52L2782.35 336.025H2742.12L2730.88 315.176H2657.58L2646.99 336.025H2606.6ZM2693.9 245.462L2671.1 289.766H2717.36L2693.9 245.462ZM2832.59 336.025V294.978L2767.28 218.097H2810.93L2850.67 266.311L2890.42 218.097H2934.07L2868.75 294.978V336.025H2832.59ZM2948.98 294.653V259.47C2948.98 224.938 2968.37 216.794 3000.94 216.794H3055.35C3096.39 216.794 3102.09 231.616 3102.09 254.583V258.329H3066.58C3066.58 246.602 3059.91 245.136 3048.34 245.136H3009.09C2990.84 245.136 2986.12 249.534 2986.12 269.731V284.391C2986.12 304.589 2990.84 308.987 3009.09 308.987H3047.69C3057.14 308.987 3066.58 307.521 3066.58 296.119V292.698H3021.63V268.265H3102.74V301.82C3102.74 335.7 3085.15 337.328 3044.43 337.328H3000.94C2968.37 337.328 2948.98 329.184 2948.98 294.653ZM3164.8 247.416V276.084H3224.58C3234.35 276.084 3237.94 272.175 3237.94 263.705V259.795C3237.94 249.371 3232.72 247.416 3221.32 247.416H3164.8ZM3128.64 336.025V218.097H3237.77C3265.63 218.097 3273.12 231.942 3273.12 253.117V260.61C3273.12 276.41 3269.54 285.694 3252.92 289.603V289.929C3263.67 291.884 3272.63 296.607 3272.63 315.991V336.025H3236.47V321.854C3236.47 309.475 3232.89 305.403 3221.65 305.403H3164.8V336.025H3128.64ZM3299.11 294.653V259.47C3299.11 224.938 3318.49 216.794 3351.07 216.794H3409.06C3441.63 216.794 3461.02 224.938 3461.02 259.47V294.653C3461.02 329.184 3441.63 337.328 3409.06 337.328H3351.07C3318.49 337.328 3299.11 329.184 3299.11 294.653ZM3336.25 270.709V283.414C3336.25 300.517 3339.83 307.032 3356.93 307.032H3403.19C3420.3 307.032 3423.88 300.517 3423.88 283.414V270.709C3423.88 256.049 3420.3 247.09 3401.24 247.09H3358.89C3339.83 247.09 3336.25 256.049 3336.25 270.709ZM3487.04 294.001V218.097H3523.2V286.183C3523.2 301.168 3528.57 307.032 3543.4 307.032H3579.23C3594.05 307.032 3599.43 301.168 3599.43 286.183V218.097H3635.59V294.001C3635.59 323.32 3620.44 337.328 3587.21 337.328H3535.42C3502.19 337.328 3487.04 323.32 3487.04 294.001ZM3664.09 336.025V218.097H3720.12L3788.05 303.774H3788.37V218.097H3824.53V336.025H3768.5L3700.58 250.348H3700.25V336.025H3664.09ZM3854.38 336.025V218.097H3963.51C3999.67 218.097 4012.37 229.988 4012.37 259.144V294.978C4012.37 324.135 3999.67 336.025 3963.51 336.025H3854.38ZM3890.54 247.416V305.729H3954.71C3970.19 305.729 3976.21 301.331 3976.21 284.554V268.591C3976.21 251.814 3970.19 247.416 3954.71 247.416H3890.54Z"
            fill="white" />
        <rect x="782.118" y="377.025" width="860.462" height="137.529" rx="29.6154" fill="white" fill-opacity="0.05" />
        <rect x="783.969" y="378.876" width="856.76" height="133.827" rx="27.7644" stroke="white" stroke-opacity="0.05"
            stroke-width="3.70192" />
        <path
            d="M847.457 475.045V416.081H899.498C913.914 416.081 920.918 419.99 920.918 431.555C920.918 441.654 917.253 443.608 912.203 445.074V445.318C920.103 446.296 923.035 450.531 923.035 459.408C923.035 472.357 915.38 475.045 905.037 475.045H847.457ZM865.537 451.671V460.874H897.951C901.86 460.874 904.466 459.978 904.466 456.558C904.466 452.567 901.86 451.671 897.951 451.671H865.537ZM865.537 430.252V439.455H897.544C900.883 439.455 902.838 438.233 902.838 434.894C902.838 431.473 900.883 430.252 897.544 430.252H865.537ZM935.983 454.033V416.081H954.063V450.124C954.063 457.616 956.751 460.548 964.162 460.548H982.079C989.49 460.548 992.178 457.616 992.178 450.124V416.081H1010.26V454.033C1010.26 468.692 1002.68 475.696 986.07 475.696H960.171C943.557 475.696 935.983 468.692 935.983 454.033ZM1025.49 475.045V416.081H1043.57V475.045H1025.49ZM1058.87 475.045V416.081H1076.95V459.897H1117.59V475.045H1058.87ZM1128.01 475.045V416.081H1182.57C1200.65 416.081 1207.01 422.026 1207.01 436.604V454.521C1207.01 469.1 1200.65 475.045 1182.57 475.045H1128.01ZM1146.09 430.74V459.897H1178.18C1185.91 459.897 1188.93 457.698 1188.93 449.309V441.328C1188.93 432.939 1185.91 430.74 1178.18 430.74H1146.09ZM1258.02 430.74V416.081H1326.92V430.74H1301.51V475.045H1283.43V430.74H1258.02ZM1335.56 454.359V436.767C1335.56 419.501 1345.25 415.429 1361.54 415.429H1390.53C1406.82 415.429 1416.51 419.501 1416.51 436.767V454.359C1416.51 471.624 1406.82 475.696 1390.53 475.696H1361.54C1345.25 475.696 1335.56 471.624 1335.56 454.359ZM1354.13 442.387V448.739C1354.13 457.29 1355.92 460.548 1364.47 460.548H1387.6C1396.15 460.548 1397.94 457.29 1397.94 448.739V442.387C1397.94 435.057 1396.15 430.577 1386.62 430.577H1365.45C1355.92 430.577 1354.13 435.057 1354.13 442.387ZM1428.22 454.359V436.767C1428.22 419.501 1437.91 415.429 1454.2 415.429H1483.2C1499.48 415.429 1509.18 419.501 1509.18 436.767V454.359C1509.18 471.624 1499.48 475.696 1483.2 475.696H1454.2C1437.91 475.696 1428.22 471.624 1428.22 454.359ZM1446.79 442.387V448.739C1446.79 457.29 1448.58 460.548 1457.13 460.548H1480.26C1488.81 460.548 1490.61 457.29 1490.61 448.739V442.387C1490.61 435.057 1488.81 430.577 1479.29 430.577H1458.11C1448.58 430.577 1446.79 435.057 1446.79 442.387ZM1522.19 475.045V416.081H1540.27V459.897H1580.91V475.045H1522.19Z"
            fill="white" />
    </g>
    <defs>
        <filter id="filter0_f_34_228" x="2831" y="-938" width="2080" height="2080" filterUnits="userSpaceOnUse"
            color-interpolation-filters="sRGB">
            <feFlood flood-opacity="0" result="BackgroundImageFix" />
            <feBlend mode="normal" in="SourceGraphic" in2="BackgroundImageFix" result="shape" />
            <feGaussianBlur stdDeviation="260" result="effect1_foregroundBlur_34_228" />
        </filter>
        <filter id="filter1_f_34_228" x="-893" y="-340" width="2080" height="2080" filterUnits="userSpaceOnUse"
            color-interpolation-filters="sRGB">
            <feFlood flood-opacity="0" result="BackgroundImageFix" />
            <feBlend mode="normal" in="SourceGraphic" in2="BackgroundImageFix" result="shape" />
            <feGaussianBlur stdDeviation="260" result="effect1_foregroundBlur_34_228" />
        </filter>
        <linearGradient id="paint0_linear_34_228" x1="3351" y1="-418" x2="4391" y2="622" gradientUnits="userSpaceOnUse">
            <stop offset="0.15" stop-color="#6155F5" />
            <stop offset="0.85" stop-color="#CB30E0" />
        </linearGradient>
        <linearGradient id="paint1_linear_34_228" x1="-373" y1="180" x2="667" y2="1220" gradientUnits="userSpaceOnUse">
            <stop offset="0.15" stop-color="#E98FC9" />
            <stop offset="0.85" stop-color="#00C3D0" />
        </linearGradient>
        <clipPath id="clip0_34_228">
            <rect width="4200" height="700" fill="white" />
        </clipPath>
    </defs>
</svg>
